<?xml version="1.0" standalone="no"?><!DOCTYPE svg PUBLIC "-//W3C//DTD SVG 1.1//EN" "http://www.w3.org/Graphics/SVG/1.1/DTD/svg11.dtd"><svg t="1587977193288" class="icon" viewBox="0 0 1024 1024" version="1.1" xmlns="http://www.w3.org/2000/svg" p-id="1362" xmlns:xlink="http://www.w3.org/1999/xlink" width="200" height="200"><defs><style type="text/css"></style></defs><path d="M242.263415 786.531902l0.599414-0.399609c-1.398634-1.498537-2.997073-2.897171-4.495609-4.395708-148.654829-150.552976-148.654829-394.514732 0-545.067707 1.398634-1.498537 2.997073-2.997073 4.495609-4.395707l-0.599414-0.599415c8.092098-12.188098 6.793366-28.971707-3.896195-39.761171-10.689561-10.789463-27.173463-12.088195-39.261659-3.996097l-0.39961-0.39961c-1.498537 1.498537-3.096976 2.897171-4.49561 4.395707-172.931122 175.228878-172.931122 459.15161 0 634.380488 1.398634 1.498537 2.997073 2.997073 4.49561 4.395707l0.39961-0.399609c0.999024 1.698341 2.397659 3.396683 3.896195 4.895219 12.188098 12.387902 31.96878 12.387902 44.156878 0s12.188098-32.268488 0-44.65639c-1.598439-1.498537-3.196878-2.797268-4.895219-3.996098z" p-id="1363"></path><path d="M356.951415 670.445268l0.699317-0.699317c-1.498537-1.398634-3.196878-2.697366-4.595512-4.295805-85.21678-86.315707-85.21678-226.378927 0-312.694634 1.498537-1.498537 3.096976-2.897171 4.595512-4.295805l-0.699317-0.699317c8.092098-12.188098 6.693463-28.971707-3.896195-39.76117-10.689561-10.789463-27.173463-12.088195-39.261659-3.996098l-0.199805-0.199805c-1.498537 1.398634-3.096976 2.697366-4.595512 4.295805-109.692878 110.99161-109.692878 291.115707 0 402.107317 1.498537 1.498537 3.096976 2.697366 4.595512 4.295805l0.199805-0.199805c1.198829 1.798244 2.497561 3.396683 3.896195 4.89522 12.188098 12.387902 31.96878 12.387902 44.156878 0s12.188098-32.268488 0-44.656391c-1.498537-1.598439-3.096976-2.997073-4.895219-4.096zM515.996098 414.395317c-57.144195 0-103.299122 46.254829-103.299122 103.299122 0 57.144195 46.254829 103.299122 103.299122 103.299122 57.144195 0 103.299122-46.254829 103.299122-103.299122s-46.154927-103.299122-103.299122-103.299122z m0 149.254244c-25.37522 0-45.955122-20.579902-45.955122-45.955122s20.579902-45.955122 45.955122-45.955122 45.955122 20.579902 45.955122 45.955122-20.679805 45.955122-45.955122 45.955122zM712.704 304.702439c-1.498537-1.498537-3.196878-2.697366-4.595512-4.195902l-0.199805 0.199804c-12.188098-8.092098-28.871805-6.793366-39.661268 3.996098s-12.088195 27.473171-3.996098 39.661268l-0.699317 0.699317c1.498537 1.398634 3.196878 2.697366 4.595512 4.295805 86.115902 86.115902 86.115902 225.67961 0 311.895415-1.498537 1.498537-3.196878 2.697366-4.595512 4.295805l0.699317 0.699317c-1.798244 1.198829-3.29678 2.497561-4.895219 3.996097-12.387902 12.387902-12.387902 32.268488 0 44.556488 12.387902 12.387902 32.268488 12.387902 44.556487 0 1.498537-1.498537 2.897171-3.196878 3.996098-4.895219l0.199805 0.199805c1.498537-1.398634 3.196878-2.697366 4.595512-4.295805 110.791805-110.99161 110.791805-290.41639 0-401.108293z" p-id="1364"></path><path d="M828.590829 188.81561c-1.498537-1.498537-3.096976-2.797268-4.395707-4.49561l-0.39961 0.39961c-12.188098-8.092098-28.871805-6.793366-39.661268 3.996097-10.789463 10.789463-12.088195 27.473171-3.996098 39.661269l-0.599414 0.599414c1.398634 1.498537 2.997073 2.897171 4.495609 4.395708C934.087805 383.425561 934.087805 626.787902 783.934439 776.641561c-1.398634 1.498537-2.997073 2.997073-4.49561 4.395707l0.599415 0.599415c-1.698341 1.098927-3.396683 2.497561-4.89522 3.996097-12.387902 12.288-12.387902 32.168585 0 44.556488 12.288 12.387902 32.168585 12.387902 44.556488 0 1.498537-1.598439 2.797268-3.096976 3.996098-4.895219l0.39961 0.39961c1.398634-1.498537 2.997073-2.897171 4.495609-4.395708 174.629463-174.629463 174.629463-457.852878 0-632.482341z" p-id="1365"></path></svg>